<svg id="Layer_1" data-name="Layer 1" xmlns="http://www.w3.org/2000/svg" xmlns:xlink="http://www.w3.org/1999/xlink" viewBox="0 0 50 40"><defs><style>.cls-1,.cls-4{fill:none;}.cls-2{fill:#1d1d1b;opacity:0;}.cls-3{clip-path:url(#clip-path);}.cls-4{stroke:#fff;stroke-linecap:round;stroke-linejoin:round;stroke-width:2px;}</style><clipPath id="clip-path"><rect class="cls-1" x="8.06" y="3.06" width="33.88" height="33.87"/></clipPath></defs><rect class="cls-2" width="50" height="40"/><g id="Artwork_32" data-name="Artwork 32"><g class="cls-3"><g id="그룹_9" data-name="그룹 9"><path id="패스_53" data-name="패스 53" class="cls-4" d="M38.3,28.4l1.82-4.14-3.25-1.43a12.13,12.13,0,0,0,.15-5l3.32-1.28-1.62-4.21-3.3,1.28A12.16,12.16,0,0,0,32,10l1.43-3.3-4.14-1.8-1.45,3.3a12.11,12.11,0,0,0-5-.1l-1.3-3.42L17.32,6.29l1.33,3.42a12.12,12.12,0,0,0-3.55,3.4l-3.42-1.5-1.8,4.11,3.4,1.5a11.91,11.91,0,0,0-.15,4.9l-3.5,1.36,1.65,4.18,3.45-1.33a12.12,12.12,0,0,0,3.35,3.6L16.6,33.3l4.12,1.82,1.47-3.35a12.15,12.15,0,0,0,4.95.18l1.33,3.4,4.21-1.63-1.3-3.35A12,12,0,0,0,35,27Z"/><circle id="타원_5" data-name="타원 5" class="cls-4" cx="25" cy="20" r="6.13"/></g></g></g></svg>