<svg id="Layer_1" data-name="Layer 1" xmlns="http://www.w3.org/2000/svg" viewBox="0 0 50 40"><defs><style>.cls-1{fill:#1d1d1b;opacity:0;}.cls-2{opacity:1;}.cls-3{fill:none;stroke:#fff;stroke-linecap:round;stroke-linejoin:round;stroke-width:2px;}</style></defs><rect class="cls-1" width="50" height="40"/><g id="ico_people" data-name="ico people" class="cls-2"><path id="pass6" class="cls-3" d="M13.65,32.27V28.93c0-2.65,3.8-3.8,5.8-4.95.69-.42,1.39-.72,1.39-1.65V18.6c0-.2-.37-.68-.46-.87a10.24,10.24,0,0,1-.52-3.43c0-2.32.3-5.06,2.74-6.14a5.82,5.82,0,0,1,2.34-.43"/><path id="pass5" class="cls-3" d="M36.33,32.27V28.93c0-2.67-3.82-3.8-5.8-4.95-.69-.42-1.39-.72-1.39-1.65V18.6c0-.2.37-.68.46-.87a10.24,10.24,0,0,0,.52-3.43c0-2.32-.3-5.06-2.74-6.14A5.86,5.86,0,0,0,25,7.73"/><path id="pass4" class="cls-3" d="M5.4,32.27V29.8c0-2,2.84-2.82,4.32-3.69.52-.3,1-.52,1-1.24V22.09c0-.13-.28-.5-.33-.65A8,8,0,0,1,10,18.87c0-1.73.24-3.77,2-4.58A5,5,0,0,1,13.82,14"/><path id="pass3" class="cls-3" d="M17,22.09c0-.13.28-.5.32-.65a7.46,7.46,0,0,0,.39-2.57c0-1.73-.24-3.77-2-4.58A4.87,4.87,0,0,0,13.89,14"/><path id="pass2" class="cls-3" d="M44.6,32.27V29.8c0-2-2.84-2.82-4.32-3.69-.52-.3-1-.52-1-1.24V22.09c0-.13.28-.5.32-.65a7.72,7.72,0,0,0,.4-2.57c0-1.73-.24-3.77-2-4.58A5,5,0,0,0,36.18,14"/><path id="pass1" class="cls-3" d="M33.05,22.09c0-.13-.28-.5-.32-.65a7.46,7.46,0,0,1-.39-2.57c0-1.73.24-3.77,2-4.58A4.46,4.46,0,0,1,36.11,14"/></g></svg>