<?xml version="1.0" encoding="utf-8"?>
<!-- Generator: Adobe Illustrator 25.4.1, SVG Export Plug-In . SVG Version: 6.00 Build 0)  -->
<svg version="1.1" id="Layer_1" xmlns="http://www.w3.org/2000/svg" xmlns:xlink="http://www.w3.org/1999/xlink" x="0px" y="0px"
	 viewBox="0 0 540 164" style="enable-background:new 0 0 540 164;" xml:space="preserve">
<style type="text/css">
	.st0{clip-path:url(#SVGID_00000133501956705297743610000015307933167667048076_);}
	.st1{clip-path:url(#SVGID_00000003787388244020336300000015608591436952678030_);fill:#121212;}
	.st2{clip-path:url(#SVGID_00000003787388244020336300000015608591436952678030_);fill:#54529F;}
</style>
<g id="Flexer_00000033326753141792340650000006314218502549197447_">
	<g>
		<defs>
			<rect id="SVGID_1_" width="540" height="164"/>
		</defs>
		<clipPath id="SVGID_00000173147106739904525640000007127393564882976445_">
			<use xlink:href="#SVGID_1_"  style="overflow:visible;"/>
		</clipPath>
		<g style="clip-path:url(#SVGID_00000173147106739904525640000007127393564882976445_);">
			<defs>
				<rect id="SVGID_00000122709291400300986970000010696859646430604974_" width="540" height="164"/>
			</defs>
			<clipPath id="SVGID_00000158746053517216353990000006521681045094224309_">
				<use xlink:href="#SVGID_00000122709291400300986970000010696859646430604974_"  style="overflow:visible;"/>
			</clipPath>
			<path style="clip-path:url(#SVGID_00000158746053517216353990000006521681045094224309_);fill:#121212;" d="M70,100
				c13.25,0,24-10.75,24-24H48H24v24v8H0v24h24v32h24v-32h22c13.25,0,24-10.75,24-24H48v-8H70z"/>
			<path style="clip-path:url(#SVGID_00000158746053517216353990000006521681045094224309_);fill:#121212;" d="M134.03,76h-24v64
				H110v24h0.03h24H156c13.26,0,24-10.75,24-24h-45.97V76z"/>
			<path style="clip-path:url(#SVGID_00000158746053517216353990000006521681045094224309_);fill:#121212;" d="M242,100
				c13.26,0,24-10.75,24-24h-45.97h-24H196v24h0.03v8H196v24h0.03v8H196v24h0.03h24H242c13.26,0,24-10.74,24-24h-45.97v-8H242
				c13.26,0,24-10.75,24-24h-45.97v-8H242z"/>
			<path style="clip-path:url(#SVGID_00000158746053517216353990000006521681045094224309_);fill:#121212;" d="M420,100
				c13.26,0,24-10.75,24-24h-46h-24v24v8v24v8v24h24h22c13.26,0,24-10.74,24-24h-46v-8h22c13.26,0,24-10.75,24-24h-46v-8H420z"/>
			<path style="clip-path:url(#SVGID_00000158746053517216353990000006521681045094224309_);fill:#121212;" d="M540,108v-8
				c0-13.25-10.74-24-24-24h-32h-24v56v32h24v-32h11.67l11.55,20c6.63,11.48,21.3,15.41,32.78,8.79l-17.19-29.77
				C532.75,128.07,540,118.89,540,108 M516,108h-32v-8h32V108z"/>
			<polygon style="clip-path:url(#SVGID_00000158746053517216353990000006521681045094224309_);fill:#121212;" points="359.26,76 
				331.55,76 320,96 308.45,76 280.74,76 306.14,120 280.74,164 308.45,164 320,144 331.55,164 359.26,164 333.86,120 			"/>
			<path style="clip-path:url(#SVGID_00000158746053517216353990000006521681045094224309_);fill:#54529F;" d="M77.2,16.8
				C86.48,16.8,94,9.28,94,0H54C37.43,0,24,13.43,24,30s13.43,30,30,30h2.8C69.61,60,80,49.61,80,36.8H68.4v-1.6h4.8
				c9.28,0,16.8-7.52,16.8-16.8H73.2v-1.6H77.2z"/>
		</g>
	</g>
</g>
</svg>
