<?xml version="1.0" encoding="utf-8"?>
<!-- Generator: Adobe Illustrator 25.4.1, SVG Export Plug-In . SVG Version: 6.00 Build 0)  -->
<svg version="1.2" baseProfile="tiny" id="Layer_1" xmlns="http://www.w3.org/2000/svg" xmlns:xlink="http://www.w3.org/1999/xlink"
	 x="0px" y="0px" viewBox="0 0 595.28 93.15" overflow="visible" xml:space="preserve">
<g>
	<rect y="-0.1" fill="#FFFFFF" width="25.84" height="25.84"/>
	<rect x="33.56" y="-0.1" fill="#FFFFFF" width="25.84" height="25.84"/>
	<rect x="67.11" y="67.03" fill="#FFFFFF" width="25.84" height="25.84"/>
	<path fill="#FFFFFF" d="M33.56,72.07c-0.07,2.08-1.76,3.74-3.86,3.74c-2.09,0-3.79-1.67-3.86-3.74v-5.04h-5.01
		c-2.09-0.05-3.78-1.75-3.78-3.86c0-2.1,1.68-3.81,3.78-3.86h5.01V33.46H0v25.84h5.01c2.09,0.05,3.78,1.75,3.78,3.86
		c0,2.11-1.68,3.81-3.78,3.86H0v25.84h25.84v-5.04c0.07-2.08,1.76-3.74,3.86-3.74c2.09,0,3.79,1.67,3.86,3.74v5.04H59.4V67.03H33.56
		V72.07z"/>
	<rect x="33.56" y="33.46" fill="#FFFFFF" width="25.84" height="25.84"/>
	<rect x="67.11" y="-0.1" fill="#FFFFFF" width="25.84" height="25.84"/>
	<rect x="67.11" y="33.46" fill="#FFFFFF" width="25.84" height="25.84"/>
	<rect x="109.18" y="0.61" fill="#FFFFFF" width="7.47" height="40.26"/>
	<rect x="121.75" y="17.53" fill="#FFFFFF" width="15.1" height="6.43"/>
	<path fill="#FFFFFF" d="M163.11-0.1c-11.99,0-21.25,9.1-21.25,20.87c0,11.61,9.37,20.81,21.19,20.81c11.72,0,20.76-9.1,20.76-20.87
		C183.81,9.22,174.6-0.1,163.11-0.1z M162.99,34.39c-7.63,0-13.62-5.99-13.62-13.62c0-7.79,5.88-13.68,13.62-13.68
		c7.47,0,13.3,5.99,13.3,13.73C176.29,28.56,170.63,34.39,162.99,34.39z"/>
	<polygon fill="#FFFFFF" points="195.46,11.62 212.3,40.87 220.63,40.87 220.63,0.61 213.17,0.61 213.17,29.92 196.5,0.61 188,0.61 
		188,40.87 195.46,40.87 	"/>
	<path fill="#FFFFFF" d="M131.45,88.19c-1.73,0.88-3.79,1.32-6.18,1.32c-1.93,0-3.71-0.37-5.36-1.12c-1.64-0.74-3.08-1.77-4.29-3.07
		c-1.21-1.3-2.16-2.82-2.84-4.56c-0.68-1.74-1.02-3.62-1.02-5.65V75c0-2,0.34-3.86,1.02-5.61c0.68-1.74,1.63-3.27,2.84-4.56
		c1.21-1.3,2.64-2.31,4.29-3.05c1.65-0.73,3.43-1.09,5.36-1.09c2.39,0,4.44,0.44,6.16,1.34c1.71,0.9,3.31,2.04,4.81,3.44l2.69-2.89
		c-0.87-0.83-1.76-1.59-2.69-2.27c-0.93-0.68-1.95-1.26-3.04-1.75c-1.1-0.48-2.29-0.85-3.57-1.12c-1.28-0.27-2.72-0.4-4.31-0.4
		c-2.56,0-4.92,0.47-7.08,1.42c-2.16,0.94-4.02,2.24-5.58,3.89c-1.56,1.65-2.79,3.56-3.66,5.76c-0.88,2.19-1.32,4.52-1.32,6.98v0.1
		c0,2.49,0.44,4.83,1.32,7.03c0.88,2.19,2.1,4.1,3.66,5.71c1.56,1.61,3.41,2.88,5.54,3.81c2.13,0.93,4.45,1.4,6.98,1.4
		c1.59,0,3.04-0.15,4.34-0.45c1.3-0.3,2.51-0.72,3.64-1.25c1.13-0.53,2.18-1.17,3.16-1.92c0.98-0.75,1.92-1.59,2.82-2.52l-2.59-2.54
		C134.88,86.07,133.18,87.31,131.45,88.19z"/>
	<path fill="#FFFFFF" d="M175.17,62.42c-1.56-1.65-3.43-2.95-5.6-3.91c-2.18-0.96-4.6-1.44-7.26-1.44c-2.66,0-5.09,0.49-7.28,1.47
		c-2.19,0.98-4.07,2.29-5.63,3.94c-1.56,1.65-2.78,3.56-3.64,5.76c-0.86,2.19-1.29,4.49-1.29,6.88v0.1c0,2.39,0.42,4.67,1.27,6.85
		c0.85,2.18,2.05,4.09,3.61,5.73c1.56,1.64,3.43,2.95,5.61,3.91c2.18,0.96,4.59,1.45,7.25,1.45c2.66,0,5.08-0.49,7.28-1.47
		c2.19-0.98,4.07-2.29,5.63-3.93c1.56-1.65,2.78-3.57,3.64-5.76c0.86-2.19,1.3-4.48,1.3-6.87c0.03-0.03,0.03-0.07,0-0.1
		c0-2.4-0.43-4.68-1.27-6.86C177.94,65.98,176.73,64.06,175.17,62.42z M175.97,75.21c0,1.99-0.34,3.85-1.02,5.58
		c-0.69,1.73-1.62,3.24-2.82,4.54c-1.2,1.3-2.64,2.32-4.31,3.07c-1.68,0.75-3.51,1.12-5.51,1.12c-1.99,0-3.83-0.38-5.51-1.14
		c-1.68-0.76-3.13-1.8-4.36-3.09c-1.23-1.3-2.19-2.82-2.87-4.56c-0.68-1.75-1.02-3.61-1.02-5.61V75c0-2,0.34-3.85,1.02-5.58
		c0.68-1.73,1.62-3.24,2.82-4.54c1.2-1.3,2.63-2.32,4.31-3.07c1.68-0.75,3.51-1.12,5.51-1.12c1.99,0,3.83,0.38,5.51,1.14
		c1.68,0.77,3.13,1.8,4.36,3.09c1.23,1.3,2.18,2.82,2.87,4.56c0.68,1.75,1.02,3.62,1.02,5.61V75.21z"/>
	<polygon fill="#FFFFFF" points="205.08,76.7 192.37,57.66 188.38,57.66 188.38,92.55 192.22,92.55 192.22,64.34 204.93,82.98 
		205.14,82.98 217.85,64.29 217.85,92.55 221.79,92.55 221.79,57.66 217.8,57.66 	"/>
	<polygon fill="#FFFFFF" points="248.35,76.7 235.64,57.66 231.66,57.66 231.66,92.55 235.49,92.55 235.49,64.34 248.2,82.98 
		248.4,82.98 261.11,64.29 261.11,92.55 265.05,92.55 265.05,57.66 261.07,57.66 	"/>
	<path fill="#FFFFFF" d="M299.5,77.94c0,3.82-0.95,6.7-2.85,8.63c-1.89,1.93-4.45,2.89-7.67,2.89c-3.35,0-5.97-1.01-7.85-3.04
		c-1.88-2.03-2.82-4.94-2.82-8.72V57.66h-3.94v20.29c0,2.46,0.35,4.64,1.05,6.53c0.69,1.9,1.69,3.48,2.96,4.76
		c1.28,1.28,2.81,2.25,4.59,2.89c1.78,0.65,3.75,0.97,5.91,0.97c2.2,0,4.18-0.32,5.96-0.97c1.78-0.64,3.3-1.62,4.58-2.91
		c1.28-1.3,2.27-2.91,2.97-4.84c0.7-1.93,1.04-4.17,1.04-6.73V57.66h-3.93V77.94z"/>
	<polygon fill="#FFFFFF" points="338.43,85.62 316.45,57.66 312.76,57.66 312.76,92.55 316.6,92.55 316.6,63.94 339.13,92.55 
		342.27,92.55 342.27,57.66 338.43,57.66 	"/>
	<rect x="352.49" y="57.66" fill="#FFFFFF" width="3.94" height="34.9"/>
	<path fill="#FFFFFF" d="M388.88,88.19c-1.73,0.88-3.79,1.32-6.18,1.32c-1.94,0-3.72-0.37-5.36-1.12c-1.65-0.74-3.08-1.77-4.29-3.07
		c-1.22-1.3-2.17-2.82-2.84-4.56c-0.69-1.74-1.03-3.62-1.03-5.65V75c0-2,0.34-3.86,1.03-5.61c0.68-1.74,1.63-3.27,2.84-4.56
		c1.21-1.3,2.64-2.31,4.29-3.05c1.64-0.73,3.42-1.09,5.36-1.09c2.39,0,4.44,0.44,6.15,1.34c1.71,0.9,3.31,2.04,4.81,3.44l2.7-2.89
		c-0.87-0.83-1.77-1.59-2.7-2.27c-0.93-0.68-1.94-1.26-3.04-1.75c-1.1-0.48-2.28-0.85-3.57-1.12c-1.28-0.27-2.72-0.4-4.31-0.4
		c-2.56,0-4.92,0.47-7.08,1.42c-2.16,0.94-4.02,2.24-5.58,3.89c-1.56,1.65-2.79,3.56-3.67,5.76c-0.88,2.19-1.32,4.52-1.32,6.98v0.1
		c0,2.49,0.44,4.83,1.32,7.03c0.88,2.19,2.1,4.1,3.67,5.71c1.56,1.61,3.4,2.88,5.54,3.81c2.12,0.93,4.45,1.4,6.98,1.4
		c1.59,0,3.04-0.15,4.33-0.45c1.3-0.3,2.51-0.72,3.64-1.25c1.13-0.53,2.18-1.17,3.17-1.92c0.97-0.75,1.91-1.59,2.81-2.52l-2.59-2.54
		C392.31,86.07,390.61,87.31,388.88,88.19z"/>
	<path fill="#FFFFFF" d="M416.35,57.41l-15.91,35.15h4.04l4.14-9.22h18.99l4.09,9.22h4.24l-15.91-35.15H416.35z M410.17,79.79
		l7.98-17.8l7.93,17.8H410.17z"/>
	<polygon fill="#FFFFFF" points="440.32,61.3 452.04,61.3 452.04,92.55 455.98,92.55 455.98,61.3 467.7,61.3 467.7,57.66 
		440.32,57.66 	"/>
	<rect x="475.47" y="57.66" fill="#FFFFFF" width="3.94" height="34.9"/>
	<path fill="#FFFFFF" d="M522.41,68.15c-0.85-2.17-2.05-4.09-3.62-5.73c-1.56-1.65-3.43-2.95-5.61-3.91
		c-2.17-0.96-4.59-1.44-7.25-1.44c-2.66,0-5.08,0.49-7.27,1.47c-2.2,0.98-4.08,2.29-5.63,3.94c-1.56,1.65-2.78,3.56-3.64,5.76
		c-0.87,2.19-1.3,4.49-1.3,6.88v0.1c0,2.39,0.43,4.67,1.27,6.85c0.85,2.18,2.05,4.09,3.61,5.73c1.57,1.64,3.44,2.95,5.61,3.91
		c2.17,0.96,4.6,1.45,7.25,1.45c2.66,0,5.09-0.49,7.28-1.47c2.2-0.98,4.07-2.29,5.63-3.93c1.56-1.65,2.77-3.57,3.64-5.76
		c0.87-2.19,1.3-4.48,1.3-6.87c0.04-0.03,0.04-0.07,0-0.1C523.68,72.61,523.25,70.33,522.41,68.15z M519.59,75.21
		c0,1.99-0.35,3.85-1.02,5.58c-0.69,1.73-1.63,3.24-2.82,4.54c-1.2,1.3-2.64,2.32-4.31,3.07c-1.68,0.75-3.51,1.12-5.51,1.12
		c-1.99,0-3.82-0.38-5.51-1.14c-1.68-0.76-3.13-1.8-4.36-3.09c-1.23-1.3-2.19-2.82-2.87-4.56c-0.68-1.75-1.02-3.61-1.02-5.61V75
		c0-2,0.34-3.85,1.02-5.58c0.68-1.73,1.62-3.24,2.82-4.54c1.2-1.3,2.63-2.32,4.31-3.07c1.68-0.75,3.52-1.12,5.51-1.12
		c1.99,0,3.84,0.38,5.51,1.14c1.68,0.77,3.14,1.8,4.36,3.09c1.22,1.3,2.18,2.82,2.87,4.56c0.67,1.75,1.02,3.62,1.02,5.61V75.21z"/>
	<polygon fill="#FFFFFF" points="557.67,85.62 535.69,57.66 532,57.66 532,92.55 535.84,92.55 535.84,63.94 558.37,92.55 
		561.51,92.55 561.51,57.66 557.67,57.66 	"/>
	<path fill="#FFFFFF" d="M592.49,76.8c-1.84-1.53-4.71-2.73-8.6-3.59c-1.93-0.4-3.51-0.82-4.74-1.27c-1.23-0.45-2.19-0.95-2.88-1.5
		c-0.71-0.55-1.19-1.15-1.45-1.8c-0.27-0.65-0.4-1.38-0.4-2.22v-0.1c0-1.59,0.66-2.93,1.99-4.01c1.33-1.08,3.14-1.62,5.43-1.62
		c1.79,0,3.51,0.3,5.16,0.89c1.64,0.6,3.28,1.56,4.91,2.89l2.3-3.04c-1.8-1.43-3.65-2.5-5.56-3.22c-1.91-0.71-4.14-1.07-6.7-1.07
		c-1.66,0-3.2,0.24-4.59,0.72c-1.4,0.48-2.61,1.15-3.64,1.99c-1.02,0.85-1.82,1.86-2.39,3.02c-0.57,1.17-0.85,2.43-0.85,3.79v0.1
		c0,1.43,0.23,2.67,0.69,3.74c0.47,1.07,1.18,2,2.16,2.79c0.96,0.8,2.19,1.48,3.67,2.04c1.48,0.57,3.22,1.06,5.23,1.5
		c1.83,0.4,3.34,0.81,4.52,1.25c1.18,0.43,2.11,0.91,2.77,1.44c0.66,0.53,1.13,1.13,1.4,1.77c0.27,0.65,0.39,1.37,0.39,2.16v0.1
		c0,1.73-0.71,3.15-2.11,4.26c-1.42,1.11-3.3,1.67-5.67,1.67c-2.42,0-4.57-0.41-6.42-1.22c-1.87-0.81-3.71-2.05-5.54-3.71
		l-2.44,2.89c2.09,1.9,4.29,3.3,6.6,4.21c2.31,0.92,4.86,1.37,7.65,1.37c1.73,0,3.33-0.23,4.78-0.7c1.47-0.47,2.71-1.13,3.76-1.99
		c1.04-0.86,1.85-1.9,2.44-3.12c0.59-1.21,0.88-2.57,0.88-4.06v-0.1C595.26,80.42,594.34,78.33,592.49,76.8z"/>
</g>
</svg>
